<svg xmlns="http://www.w3.org/2000/svg" viewBox="93 85 300 318">
  <style>
    .youTube-2{clip-path:url(#SVGID_yt-2_);fill:#fff}
  </style>
  <path fill="#a0b5d5" d="M362.8 259.4s-2.3-16-9.3-23.2c-9-9.3-19-9.3-23.5-9.8-32.8-2.4-82-2.4-82-2.4s-49.2 0-82 2.4c-4.6.5-14.6.5-23.5 9.8-7 7.1-9.3 23.2-9.3 23.2S131 278.2 131 297v17.7c0 18.9 2.3 37.7 2.3 37.7s2.3 16.1 9.3 23.2c9 9.3 20.7 9 25.9 10C187 387.4 248 388 248 388s49.2 0 82-2.4c4.6-.6 14.6-.6 23.5-10 7-7 9.3-23 9.3-23s2.3-19 2.3-37.8v-17.7c0-18.9-2.3-37.7-2.3-37.7m-47.5-56.7h-15v-8.6c-5.6 6.5-10.3 9.7-15.6 9.7-4.5 0-7.7-2.1-9.3-6-1-2.4-1.7-6.1-1.7-11.6v-62.7h15v64.3c.3 2.2 1.2 3 3.1 3 2.9 0 5.4-2.5 8.6-7v-60.3h14.9v79.2zm-52.6-53.3c0-8.5-1.7-14.8-4.7-18.8-4-5.5-10.2-7.7-16.4-7.7-7.1 0-12.5 2.2-16.5 7.7-3 4-4.7 10.4-4.7 18.8v28.2c0 8.4 1.4 14.3 4.5 18.2a21 21 0 0 0 33.5 0c3-4 4.3-9.8 4.3-18.2v-28.2zm-14.9 29.8c.8 7.8-1.6 11.7-6.2 11.7-4.7 0-7.1-3.9-6.3-11.7v-31.4c-.8-7.8 1.6-11.5 6.3-11.5s7 3.7 6.2 11.5v31.4zM204 159.6v43.1h-15.8v-43.1s-16.2-53-19.6-62.8h16.5l11 41.3 11-41.3h16.4L204 159.6z" clip-path="url(#SVGID_yt-2_)"/>
  <path d="M345.5 319.9v-16c0-8.5-1.6-14.6-4.6-18.6-4-5.3-9.6-8.2-16.8-8.2-7.2 0-12.9 2.9-17 8.2-3 4-4.8 10.5-4.8 18.9v27.4a29 29 0 0 0 5 18.1c4.1 5.4 9.8 8 17.2 8a19.6 19.6 0 0 0 20.5-17c.1-1.4.5-4.6.5-9.2v-2.2h-15v9.8c-.8 3.8-2.9 5.7-6.4 5.7-4.8 0-6.9-3.6-6.9-10.9v-14h28.3zm-28.3-20.5c0-7.3 2-9.3 6.8-9.3 4.7 0 6.6 2.2 6.6 9.4v8.6h-13.4v-8.7zM279.7 277c-5.2 0-10.4 3.2-15 8.9v-34.3h-14.1v105.1h14l.1-7.9c4.8 5.9 10 9 15 9 5.6 0 9.8-3.1 11.7-9 1-3.2 1.5-8.4 1.5-15.6v-31.4a55 55 0 0 0-1.9-15.6c-1.9-6-5.7-9.2-11.3-9.2m-1.7 57c0 7.8-1.8 10.8-6 10.8a11 11 0 0 1-7.3-3.6v-47.5a11 11 0 0 1 7.4-3.6c4 0 6 2.3 6 10.1V334zm-39.2 22.7H224v-8.6c-5.6 6.5-10.4 9.7-15.7 9.7-4.5 0-7.7-2.1-9.3-6-1-2.4-1.7-6.1-1.7-11.6v-62h15v63.6c.3 2.2 1.2 3 3.1 3 2.9 0 5.5-2.5 8.6-7v-59.5h15v78.4z" class="youTube-2"/>
  <path d="M182.3 356.7h-15.7v-90.2h-16.4v-14.9h49.4v14.9h-17.3z" class="youTube-2"/>
</svg>